HIERARCHY
ROOT Hips
{
	OFFSET 0.000000 0.000000 0.000000
	CHANNELS 6 Xposition Yposition Zposition Zrotation Yrotation Xrotation 
	JOINT LHipJoint
	{
		OFFSET 0.000000 0.000000 0.000000
		CHANNELS 3 Zrotation Yrotation Xrotation
		JOINT LeftUpLeg
		{
			OFFSET 1.363060 -1.794630 0.839290
			CHANNELS 3 Zrotation Yrotation Xrotation
			JOINT LeftLeg
			{
				OFFSET 2.448110 -6.726130 0.000000
				CHANNELS 3 Zrotation Yrotation Xrotation
				JOINT LeftFoot
				{
					OFFSET 2.562200 -7.039590 0.000000
					CHANNELS 3 Zrotation Yrotation Xrotation
					JOINT LeftToeBase
					{
						OFFSET 0.157640 -0.433110 2.322550
						CHANNELS 3 Zrotation Yrotation Xrotation
						End Site
						{
							OFFSET 0.000000 0.000000 0.000000
						}
					}
				}
			}
		}
	}
	JOINT RHipJoint
	{
		OFFSET 0.000000 0.000000 0.000000
		CHANNELS 3 Zrotation Yrotation Xrotation
		JOINT RightUpLeg
		{
			OFFSET -1.305520 -1.794630 0.839290
			CHANNELS 3 Zrotation Yrotation Xrotation
			JOINT RightLeg
			{
				OFFSET -2.542530 -6.985550 0.000000
				CHANNELS 3 Zrotation Yrotation Xrotation
				JOINT RightFoot
				{
					OFFSET -2.568260 -7.056230 0.000000
					CHANNELS 3 Zrotation Yrotation Xrotation
					JOINT RightToeBase
					{
						OFFSET -0.164730 -0.452590 2.363150
						CHANNELS 3 Zrotation Yrotation Xrotation
						End Site
						{
							OFFSET 0.000000 0.000000 0.000000
						}
					}
				}
			}
		}
	}
	JOINT LowerBack
	{
		OFFSET 0.000000 0.000000 0.000000
		CHANNELS 3 Zrotation Yrotation Xrotation
		JOINT Spine
		{
			OFFSET 0.028270 2.035590 -0.193380
			CHANNELS 3 Zrotation Yrotation Xrotation
			JOINT Spine1
			{
				OFFSET 0.056720 2.048850 -0.042750
				CHANNELS 3 Zrotation Yrotation Xrotation
				JOINT Neck
				{
					OFFSET 0.000000 0.000000 0.000000
					CHANNELS 3 Zrotation Yrotation Xrotation
					JOINT Neck1
					{
						OFFSET -0.054170 1.746240 0.172020
						CHANNELS 3 Zrotation Yrotation Xrotation
						JOINT Head
						{
							OFFSET 0.104070 1.761360 -0.123970
							CHANNELS 3 Zrotation Yrotation Xrotation
							End Site
							{
								OFFSET 0.000000 0.000000 0.000000
							}
						}
					}
				}
				JOINT LeftShoulder
				{
					OFFSET 0.000000 0.000000 0.000000
					CHANNELS 3 Zrotation Yrotation Xrotation
					JOINT LeftArm
					{
						OFFSET 3.362410 1.200890 -0.311210
						CHANNELS 3 Zrotation Yrotation Xrotation
						JOINT LeftForeArm
						{
							OFFSET 4.983000 -0.000000 -0.000000
							CHANNELS 3 Zrotation Yrotation Xrotation
							JOINT LeftHand
							{
								OFFSET 3.483560 -0.000000 -0.000000
								CHANNELS 3 Zrotation Yrotation Xrotation
								JOINT LeftFingerBase
								{
									OFFSET 0.000000 0.000000 0.000000
									CHANNELS 3 Zrotation Yrotation Xrotation
									JOINT LeftHandIndex1
									{
										OFFSET 0.715260 -0.000000 -0.000000
										CHANNELS 3 Zrotation Yrotation Xrotation
										End Site
										{
											OFFSET 0.000000 0.000000 0.000000
										}
									}
								}
								JOINT LThumb
								{
									OFFSET 0.000000 0.000000 0.000000
									CHANNELS 3 Zrotation Yrotation Xrotation
									End Site
									{
										OFFSET 0.000000 0.000000 0.000000
									}
								}
							}
						}
					}
				}
				JOINT RightShoulder
				{
					OFFSET 0.000000 0.000000 0.000000
					CHANNELS 3 Zrotation Yrotation Xrotation
					JOINT RightArm
					{
						OFFSET -3.136600 1.374050 -0.404650
						CHANNELS 3 Zrotation Yrotation Xrotation
						JOINT RightForeArm
						{
							OFFSET -5.241900 -0.000000 -0.000000
							CHANNELS 3 Zrotation Yrotation Xrotation
							JOINT RightHand
							{
								OFFSET -3.444170 -0.000000 -0.000000
								CHANNELS 3 Zrotation Yrotation Xrotation
								JOINT RightFingerBase
								{
									OFFSET 0.000000 0.000000 0.000000
									CHANNELS 3 Zrotation Yrotation Xrotation
									JOINT RightHandIndex1
									{
										OFFSET -0.622530 -0.000000 -0.000000
										CHANNELS 3 Zrotation Yrotation Xrotation
										End Site
										{
											OFFSET 0.000000 0.000000 0.000000
										}
									}
								}
								JOINT RThumb
								{
									OFFSET 0.000000 0.000000 0.000000
									CHANNELS 3 Zrotation Yrotation Xrotation
									End Site
									{
										OFFSET 0.000000 0.000000 0.000000
									}
								}
							}
						}
					}
				}
			}
		}
	}
}
MOTION
Frames: 7
Frame Time: 0.008333
1.902668 16.727424 1.855361 -178.012773 -83.749029 -179.474905 -10.481741 2.555031 0.335572 -11.807870 5.929440 -1.953413 -1.971652 0.546752 24.959809 2.350705 10.242977 -21.232499 -2.951400 -0.000000 -31.511700 9.891090 -0.300154 -0.971376 6.320282 -9.686656 -33.267311 0.572494 -3.477938 52.239018 -3.504272 -15.491346 -17.815052 2.339701 -0.000000 -6.488500 1.238508 -1.933860 -0.343643 -0.453737 -2.067670 -2.561403 -6.293023 -2.051658 1.971618 9.900338 -12.268023 -10.665894 -2.762256 -0.173057 -0.820306 0.000000 0.000000 0.000000 1.865721 15.239482 1.525387 -57.485087 -2.234717 -0.034085 -3.411506 -35.552822 -0.005578 1.573543 2.142677 0.032453 -0.158451 0.056791 0.000000 0.000000 0.000000 0.000000 0.000000 0.000000 0.000000 14.366466 -8.560719 0.811604 70.895077 -6.990365 -18.123328 3.779764 14.492198 0.010628 -3.726132 6.364420 -0.216638 0.131980 -0.076181 -0.000000 0.000000 0.000000 0.000000 0.000000 0.000000 0.000000 
1.642329 16.747380 1.821491 -175.751284 -84.463605 178.301125 -10.516360 2.675733 0.406198 -11.243334 5.909809 -0.313920 -1.936999 0.484564 23.417273 2.229344 9.853739 -20.207646 -2.648200 -0.000001 -33.833700 9.684683 -0.214254 -0.916776 7.308730 -10.068904 -34.185395 0.828263 -3.280692 49.410132 -3.521711 -15.122723 -17.716157 2.233500 0.000000 -7.381300 1.662886 -2.230725 -0.470929 -0.368523 -2.398959 -2.556818 -6.355621 -2.373417 2.032243 10.055621 -12.898433 -10.728483 -2.787183 -0.174330 -0.831541 0.000000 0.000000 0.000000 2.417620 14.557254 1.561870 -55.262051 -2.776035 -0.570833 -3.324304 -36.970273 -0.005734 1.576373 2.088011 0.031708 -0.162021 0.067126 0.000000 0.000000 0.000000 0.000000 0.000000 0.000000 0.000000 14.858180 -9.457466 0.800201 72.048225 -8.309250 -17.849819 3.848326 14.116038 0.010551 -3.057400 5.925754 -0.166366 0.128665 -0.067822 -0.000000 0.000000 0.000000 0.000000 0.000000 0.000000 0.000000 
1.380076 16.765124 1.785371 -172.983946 -85.201381 175.544719 -10.549226 2.807658 0.466418 -10.649974 5.918463 1.302206 -1.897584 0.441092 21.953911 2.090023 9.401062 -19.032960 -2.315800 0.000000 -36.268300 9.484979 -0.147245 -0.860849 8.265708 -10.479183 -34.926839 1.103005 -3.060782 46.345978 -3.499641 -14.571738 -17.522770 2.080900 0.000000 -8.768000 2.041530 -2.543136 -0.595353 -0.286456 -2.742784 -2.548626 -6.401315 -2.707930 2.104807 10.210543 -13.577781 -10.805827 -2.798556 -0.174268 -0.846363 0.000000 0.000000 0.000000 2.965348 13.918498 1.602762 -52.983850 -3.234326 -1.107850 -3.226928 -38.262176 -0.005903 1.594571 2.033282 0.031053 -0.164723 0.077798 0.000000 0.000000 0.000000 0.000000 0.000000 0.000000 0.000000 15.327703 -10.408491 0.784350 73.149234 -9.674973 -17.143092 3.926796 13.967330 0.010299 -2.176154 5.394632 -0.109191 0.124448 -0.058608 -0.000000 0.000000 0.000000 0.000000 0.000000 0.000000 0.000000 
1.115886 16.780713 1.747141 -169.357921 -85.959153 171.901767 -10.579703 2.948546 0.514165 -10.023426 5.956504 2.887301 -1.852865 0.417353 20.587637 1.934585 8.885308 -17.708182 -1.962000 0.000000 -38.777600 9.294433 -0.097337 -0.799739 9.185821 -10.908945 -35.493996 1.393181 -2.814470 43.061148 -3.443474 -13.890906 -17.223452 1.890100 -0.000000 -10.716000 2.374984 -2.870742 -0.717684 -0.206885 -3.098897 -2.537811 -6.429583 -3.055289 2.187231 10.363331 -14.290406 -10.893226 -2.797014 -0.172971 -0.863531 0.000000 0.000000 0.000000 3.503020 13.321689 1.646944 -50.659602 -3.607736 -1.639479 -3.121146 -39.421721 -0.006120 1.626830 1.988007 0.030789 -0.166566 0.088723 0.000000 0.000000 0.000000 0.000000 0.000000 0.000000 0.000000 15.770233 -11.397880 0.764322 74.196698 -11.089115 -16.097166 4.012749 14.016026 0.009793 -1.110736 4.799380 -0.051718 0.119188 -0.048729 -0.000000 0.000000 0.000000 0.000000 0.000000 0.000000 0.000000 
0.849561 16.794393 1.707080 -164.117952 -86.733571 166.620581 -10.608675 3.093853 0.548019 -9.357987 6.021326 4.431153 -1.800668 0.413128 19.336209 1.766567 8.313688 -16.235880 -1.597800 0.000000 -41.351901 9.112592 -0.064483 -0.728408 10.065379 -11.346723 -35.891514 1.693855 -2.538154 39.571059 -3.362112 -13.147948 -16.808842 1.671200 0.000000 -13.245500 2.665956 -3.213558 -0.840316 -0.128588 -3.467569 -2.525286 -6.439985 -3.416044 2.279320 10.512937 -15.026615 -10.987727 -2.783095 -0.170509 -0.882299 0.000000 0.000000 0.000000 4.022158 12.768326 1.692995 -48.299452 -3.904107 -2.155723 -3.009272 -40.442888 -0.006418 1.669987 1.961847 0.031013 -0.167612 0.099761 0.000000 0.000000 0.000000 0.000000 0.000000 0.000000 0.000000 16.182948 -12.416473 0.740240 75.183720 -12.543422 -14.800635 4.102809 14.222593 0.008977 0.093839 4.171009 -0.000347 0.112877 -0.038392 -0.000000 0.000000 0.000000 0.000000 0.000000 0.000000 0.000000 
0.581072 16.806518 1.665526 -155.574348 -87.520424 158.015047 -10.642750 3.236033 0.566735 -8.650469 6.106157 5.922780 -1.737025 0.426803 18.215961 1.590895 7.699701 -14.620024 -1.235400 0.000000 -44.005100 8.930991 -0.052102 -0.640872 10.897437 -11.778410 -36.123741 1.997665 -2.228432 35.892200 -3.266868 -12.418926 -16.271174 1.433901 0.000000 -16.336200 2.911607 -3.574351 -0.966875 -0.051746 -3.851428 -2.512309 -6.431637 -3.792999 2.381271 10.658564 -15.778411 -11.086640 -2.757600 -0.166970 -0.902008 0.000000 0.000000 0.000000 4.514171 12.257624 1.739581 -45.913908 -4.135917 -2.644308 -2.893815 -41.321857 -0.006817 1.719037 1.962722 0.031630 -0.167969 0.110734 0.000000 0.000000 0.000000 0.000000 0.000000 0.000000 0.000000 16.565244 -13.457568 0.712165 76.103444 -14.026058 -13.342583 4.193277 14.543208 0.007827 1.385563 3.536816 0.040121 0.105612 -0.027811 -0.000000 0.000000 0.000000 0.000000 0.000000 0.000000 0.000000 
0.310575 16.817439 1.622822 -139.793726 -88.295377 142.153322 -10.711068 3.369683 0.569186 -7.912628 6.205412 7.349780 -1.659399 0.456731 17.239230 1.413574 7.063538 -12.867585 -0.887500 -0.000000 -46.757800 8.717818 -0.065497 -0.533103 11.659635 -12.188112 -36.195600 2.291931 -1.878647 32.053027 -3.171443 -11.774356 -15.640486 1.193900 0.000000 -19.652300 3.079295 -3.957751 -1.100507 0.013464 -4.253044 -2.501230 -6.402813 -4.188426 2.492211 10.798509 -16.533105 -11.185747 -2.722105 -0.162534 -0.921597 0.000000 0.000000 0.000000 4.976405 11.785276 1.784842 -43.517783 -4.314055 -3.095251 -2.776768 -42.057572 -0.007317 1.767662 1.994447 0.032734 -0.167754 0.121456 0.000000 0.000000 0.000000 0.000000 0.000000 0.000000 0.000000 16.918938 -14.508687 0.680704 76.956439 -15.528563 -11.830860 4.281104 14.934987 0.006339 2.717087 2.912366 0.067285 0.097553 -0.017220 -0.000000 0.000000 0.000000 0.000000 0.000000 0.000000 0.000000 
